<mxfile host="app.diagrams.net" modified="2021-05-31T11:52:51.977Z" agent="5.0 (Macintosh; Intel Mac OS X 10_14_6) AppleWebKit/537.36 (KHTML, like Gecko) Chrome/91.0.4472.77 Safari/537.36" etag="28HeP6i-0PNozj4XAFY2" version="14.7.3" type="github">
  <diagram id="OLJjV_yMyCJu88U6sbuX" name="第 1 页">
    <mxGraphModel dx="1426" dy="803" grid="1" gridSize="10" guides="1" tooltips="1" connect="1" arrows="1" fold="1" page="1" pageScale="1" pageWidth="1169" pageHeight="1654" math="0" shadow="0">
      <root>
        <mxCell id="0" />
        <mxCell id="1" parent="0" />
        <mxCell id="wxAyCrsDgqIcD0JOLPXE-19" value="" style="rounded=1;whiteSpace=wrap;html=1;strokeWidth=2;fillColor=none;dashed=1;" vertex="1" parent="1">
          <mxGeometry x="470" y="260" width="140" height="310" as="geometry" />
        </mxCell>
        <mxCell id="wxAyCrsDgqIcD0JOLPXE-1" value="MySQL" style="shape=cylinder3;whiteSpace=wrap;html=1;boundedLbl=1;backgroundOutline=1;size=15;" vertex="1" parent="1">
          <mxGeometry x="90" y="280" width="60" height="80" as="geometry" />
        </mxCell>
        <mxCell id="wxAyCrsDgqIcD0JOLPXE-2" value="MySQL" style="shape=cylinder3;whiteSpace=wrap;html=1;boundedLbl=1;backgroundOutline=1;size=15;" vertex="1" parent="1">
          <mxGeometry x="90" y="380" width="60" height="80" as="geometry" />
        </mxCell>
        <mxCell id="wxAyCrsDgqIcD0JOLPXE-5" style="edgeStyle=orthogonalEdgeStyle;rounded=0;orthogonalLoop=1;jettySize=auto;html=1;entryX=1;entryY=0.5;entryDx=0;entryDy=0;entryPerimeter=0;" edge="1" parent="1" source="wxAyCrsDgqIcD0JOLPXE-3" target="wxAyCrsDgqIcD0JOLPXE-1">
          <mxGeometry relative="1" as="geometry" />
        </mxCell>
        <mxCell id="wxAyCrsDgqIcD0JOLPXE-6" style="edgeStyle=orthogonalEdgeStyle;rounded=0;orthogonalLoop=1;jettySize=auto;html=1;entryX=1;entryY=0.5;entryDx=0;entryDy=0;entryPerimeter=0;" edge="1" parent="1" source="wxAyCrsDgqIcD0JOLPXE-3" target="wxAyCrsDgqIcD0JOLPXE-2">
          <mxGeometry relative="1" as="geometry" />
        </mxCell>
        <mxCell id="wxAyCrsDgqIcD0JOLPXE-9" style="edgeStyle=orthogonalEdgeStyle;rounded=0;orthogonalLoop=1;jettySize=auto;html=1;entryX=0;entryY=0.5;entryDx=0;entryDy=0;" edge="1" parent="1" source="wxAyCrsDgqIcD0JOLPXE-3">
          <mxGeometry relative="1" as="geometry">
            <mxPoint x="480" y="370" as="targetPoint" />
          </mxGeometry>
        </mxCell>
        <mxCell id="wxAyCrsDgqIcD0JOLPXE-3" value="Canal" style="rounded=1;whiteSpace=wrap;html=1;fillColor=#f5f5f5;strokeColor=#666666;fontColor=#333333;" vertex="1" parent="1">
          <mxGeometry x="320" y="340" width="90" height="60" as="geometry" />
        </mxCell>
        <mxCell id="wxAyCrsDgqIcD0JOLPXE-7" value="读取binlog" style="text;html=1;strokeColor=none;fillColor=none;align=center;verticalAlign=middle;whiteSpace=wrap;rounded=0;" vertex="1" parent="1">
          <mxGeometry x="240" y="350" width="90" height="20" as="geometry" />
        </mxCell>
        <mxCell id="wxAyCrsDgqIcD0JOLPXE-15" value="" style="group;fillColor=#ffe6cc;strokeColor=#d79b00;container=0;" vertex="1" connectable="0" parent="1">
          <mxGeometry x="480" y="270" width="120" height="200" as="geometry" />
        </mxCell>
        <mxCell id="wxAyCrsDgqIcD0JOLPXE-16" value="&lt;font style=&quot;font-size: 18px&quot;&gt;Kafka&lt;/font&gt;" style="text;html=1;strokeColor=none;fillColor=none;align=center;verticalAlign=middle;whiteSpace=wrap;rounded=0;strokeWidth=2;" vertex="1" parent="1">
          <mxGeometry x="520" y="230" width="40" height="20" as="geometry" />
        </mxCell>
        <mxCell id="wxAyCrsDgqIcD0JOLPXE-27" style="edgeStyle=orthogonalEdgeStyle;rounded=0;orthogonalLoop=1;jettySize=auto;html=1;entryX=1;entryY=0.5;entryDx=0;entryDy=0;" edge="1" parent="1" source="wxAyCrsDgqIcD0JOLPXE-17" target="wxAyCrsDgqIcD0JOLPXE-26">
          <mxGeometry relative="1" as="geometry">
            <Array as="points">
              <mxPoint x="850" y="370" />
              <mxPoint x="850" y="530" />
            </Array>
          </mxGeometry>
        </mxCell>
        <mxCell id="wxAyCrsDgqIcD0JOLPXE-17" value="&lt;font style=&quot;font-size: 20px&quot;&gt;Flink&lt;/font&gt;" style="rounded=1;whiteSpace=wrap;html=1;strokeWidth=2;fillColor=#dae8fc;strokeColor=#6c8ebf;" vertex="1" parent="1">
          <mxGeometry x="680" y="340" width="120" height="60" as="geometry" />
        </mxCell>
        <mxCell id="wxAyCrsDgqIcD0JOLPXE-18" style="edgeStyle=orthogonalEdgeStyle;rounded=0;orthogonalLoop=1;jettySize=auto;html=1;entryX=0;entryY=0.5;entryDx=0;entryDy=0;" edge="1" parent="1" source="wxAyCrsDgqIcD0JOLPXE-12" target="wxAyCrsDgqIcD0JOLPXE-17">
          <mxGeometry relative="1" as="geometry" />
        </mxCell>
        <mxCell id="wxAyCrsDgqIcD0JOLPXE-10" value="Topic A" style="rounded=0;whiteSpace=wrap;html=1;fillColor=#ffe6cc;strokeColor=#d79b00;" vertex="1" parent="1">
          <mxGeometry x="480" y="270" width="120" height="40" as="geometry" />
        </mxCell>
        <mxCell id="wxAyCrsDgqIcD0JOLPXE-11" value="Topic B" style="rounded=0;whiteSpace=wrap;html=1;fillColor=#ffe6cc;strokeColor=#d79b00;" vertex="1" parent="1">
          <mxGeometry x="480" y="310" width="120" height="40" as="geometry" />
        </mxCell>
        <mxCell id="wxAyCrsDgqIcD0JOLPXE-12" value="Topic C" style="rounded=0;whiteSpace=wrap;html=1;fillColor=#ffe6cc;strokeColor=#d79b00;" vertex="1" parent="1">
          <mxGeometry x="480" y="350" width="120" height="40" as="geometry" />
        </mxCell>
        <mxCell id="wxAyCrsDgqIcD0JOLPXE-13" value="Topic D" style="rounded=0;whiteSpace=wrap;html=1;fillColor=#ffe6cc;strokeColor=#d79b00;" vertex="1" parent="1">
          <mxGeometry x="480" y="390" width="120" height="40" as="geometry" />
        </mxCell>
        <mxCell id="wxAyCrsDgqIcD0JOLPXE-14" value="Topic E" style="rounded=0;whiteSpace=wrap;html=1;fillColor=#ffe6cc;strokeColor=#d79b00;" vertex="1" parent="1">
          <mxGeometry x="480" y="430" width="120" height="40" as="geometry" />
        </mxCell>
        <mxCell id="wxAyCrsDgqIcD0JOLPXE-26" value="Topic 计算后的结果" style="rounded=0;whiteSpace=wrap;html=1;fillColor=#ffe6cc;strokeColor=#d79b00;" vertex="1" parent="1">
          <mxGeometry x="480" y="510" width="120" height="40" as="geometry" />
        </mxCell>
        <mxCell id="wxAyCrsDgqIcD0JOLPXE-28" value="Flink计算后的数据，推送到Kafka特定Topic钟" style="text;html=1;strokeColor=none;fillColor=none;align=center;verticalAlign=middle;whiteSpace=wrap;rounded=0;" vertex="1" parent="1">
          <mxGeometry x="750" y="440" width="90" height="70" as="geometry" />
        </mxCell>
        <mxCell id="wxAyCrsDgqIcD0JOLPXE-30" style="edgeStyle=orthogonalEdgeStyle;rounded=0;orthogonalLoop=1;jettySize=auto;html=1;entryX=0.5;entryY=1;entryDx=0;entryDy=0;" edge="1" parent="1" source="wxAyCrsDgqIcD0JOLPXE-29" target="wxAyCrsDgqIcD0JOLPXE-26">
          <mxGeometry relative="1" as="geometry" />
        </mxCell>
        <mxCell id="wxAyCrsDgqIcD0JOLPXE-29" value="大屏实时展示" style="rounded=1;whiteSpace=wrap;html=1;strokeWidth=2;fillColor=#e1d5e7;strokeColor=#9673a6;" vertex="1" parent="1">
          <mxGeometry x="455" y="630" width="170" height="100" as="geometry" />
        </mxCell>
      </root>
    </mxGraphModel>
  </diagram>
</mxfile>
